P2
# Created by Paint Shop Pro 6
79 79
255
189 147 147 147 147 147 147 147 147 147 147 147 147 147 147 147 147 147 
147 147 147 147 147 147 147 147 147 147 147 147 147 147 147 147 147 147 
147 147 147 160 191 191 191 191 191 191 191 191 191 191 191 191 191 191 
191 191 191 191 191 191 191 191 191 191 191 191 191 191 191 191 191 191 
191 191 191 191 191 191 216 147 76 76 76 76 76 76 76 76 76 76 76 76 76 
76 76 76 76 76 76 76 76 76 76 76 76 76 76 76 76 76 76 76 76 76 76 76 76 
76 98 150 150 150 150 150 150 150 150 150 150 150 150 150 150 150 150 150 
150 150 150 150 150 150 150 150 150 150 150 150 150 150 150 150 150 150 
150 150 150 191 147 76 76 76 76 76 76 76 76 76 76 76 76 76 76 76 76 76 
76 76 76 76 76 76 76 76 76 76 76 76 76 76 76 76 76 76 76 76 76 98 150 150 
150 150 150 150 150 150 150 150 150 150 150 150 150 150 150 150 150 150 
150 150 150 150 150 150 150 150 150 150 150 150 150 150 150 150 150 150 
191 147 76 76 76 76 76 76 76 76 76 76 76 76 76 76 76 76 76 76 76 76 76 
76 76 76 76 76 76 76 76 76 76 76 76 76 76 76 76 76 98 150 150 150 150 150 
150 150 150 150 150 150 150 150 150 150 150 150 150 150 150 150 150 150 
150 150 150 150 150 150 150 150 150 150 150 150 150 150 150 191 147 76 
76 76 76 76 76 76 76 76 76 76 76 76 76 76 76 76 76 76 76 76 76 76 76 76 
76 76 76 76 76 76 76 76 76 76 76 76 76 98 150 150 150 150 150 150 150 150 
150 150 150 150 150 150 150 150 150 150 150 150 150 150 150 150 150 150 
150 150 150 150 150 150 150 150 150 150 150 150 191 147 76 76 76 76 76 
76 76 76 76 76 76 76 76 76 76 76 76 76 76 76 76 76 76 76 76 76 76 76 76 
76 76 76 76 76 76 76 76 76 98 150 150 150 150 150 150 150 150 150 150 150 
150 150 150 150 150 150 150 150 150 150 150 150 150 150 150 150 150 150 
150 150 150 150 150 150 150 150 150 191 147 76 76 76 76 76 76 76 76 76 
76 76 76 76 76 76 76 76 76 76 76 76 76 76 76 76 76 76 76 76 76 76 76 76 
76 76 76 76 76 98 150 150 150 150 150 150 150 150 150 150 150 150 150 150 
150 150 150 150 150 150 150 150 150 150 150 150 150 150 150 150 150 150 
150 150 150 150 150 150 191 147 76 76 76 76 76 76 76 76 76 76 76 76 76 
76 76 76 76 76 76 76 76 76 76 76 76 76 76 76 76 76 76 76 76 76 76 76 76 
76 98 150 150 150 150 150 150 150 150 150 150 150 150 150 150 150 150 150 
150 150 150 150 150 150 150 150 150 150 150 150 150 150 150 150 150 150 
150 150 150 191 147 76 76 76 76 76 76 76 76 76 76 76 76 76 76 76 76 76 
76 76 76 76 76 76 76 76 76 76 76 76 76 76 76 76 76 76 76 76 76 98 150 150 
150 150 150 150 150 150 150 150 150 150 150 150 150 150 150 150 150 150 
150 150 150 150 150 150 150 150 150 150 150 150 150 150 150 150 150 150 
191 147 76 76 76 76 76 76 76 76 76 76 76 76 76 76 76 76 76 76 76 76 76 
76 76 76 76 76 76 76 76 76 76 76 76 76 76 76 76 76 98 150 150 150 150 150 
150 150 150 150 150 150 150 150 150 150 150 150 150 150 150 150 150 150 
150 150 150 150 150 150 150 150 150 150 150 150 150 150 150 191 147 76 
76 76 76 76 76 76 76 76 76 76 76 76 76 76 76 76 76 76 76 76 76 76 76 76 
76 76 76 76 76 76 76 76 76 76 76 76 76 98 150 150 150 150 150 150 150 150 
150 150 150 150 150 150 150 150 150 150 150 150 150 150 150 150 150 150 
150 150 150 150 150 150 150 150 150 150 150 150 191 147 76 76 76 76 76 
76 76 76 76 76 76 76 76 76 76 76 76 76 76 76 76 76 76 76 76 76 76 76 76 
76 76 76 76 76 76 76 76 76 98 150 150 150 150 150 150 150 150 150 150 150 
150 150 150 150 150 150 150 150 150 150 150 150 150 150 150 150 150 150 
150 150 150 150 150 150 150 150 150 191 147 76 76 76 76 76 76 76 76 76 
76 76 76 76 76 76 76 76 76 76 76 76 76 76 76 76 76 76 76 76 76 76 76 76 
76 76 76 76 76 98 150 150 150 150 150 150 150 150 150 150 150 150 150 150 
150 150 150 150 150 150 150 150 150 150 150 150 150 150 150 150 150 150 
150 150 150 150 150 150 191 147 76 76 76 76 76 76 76 76 76 76 76 76 76 
76 76 76 76 76 76 76 76 76 76 76 76 76 76 76 76 76 76 76 76 76 76 76 76 
76 98 150 150 150 150 150 150 150 150 150 150 150 150 150 150 150 150 150 
150 150 150 150 150 150 150 150 150 150 150 150 150 150 150 150 150 150 
150 150 150 191 147 76 76 76 76 76 76 76 76 76 76 76 76 76 76 76 76 76 
76 76 76 76 76 76 76 76 76 76 76 76 76 76 76 76 76 76 76 76 76 98 150 150 
150 150 150 150 150 150 150 150 150 150 150 150 150 150 150 150 150 150 
150 150 150 150 150 150 150 150 150 150 150 150 150 150 150 150 150 150 
191 147 76 76 76 76 76 76 76 76 76 76 76 76 76 76 76 76 76 76 76 76 76 
76 76 76 76 76 76 76 76 76 76 76 76 76 76 76 76 76 98 150 150 150 150 150 
150 150 150 150 131 91 72 109 143 150 150 150 150 150 150 150 150 150 150 
150 150 150 150 150 150 150 150 150 150 150 150 150 150 191 147 76 76 76 
76 76 76 76 76 76 38 20 20 21 42 74 76 76 76 76 76 76 76 76 70 32 76 76 
76 76 76 76 76 76 76 76 76 76 76 98 150 150 150 150 150 150 150 150 121 
34 74 93 50 55 146 150 150 150 150 150 150 150 150 150 150 150 150 150 
150 150 150 150 150 150 150 150 150 150 191 147 76 76 76 76 76 76 76 76 
76 24 49 63 62 25 57 76 76 76 76 76 76 76 76 68 15 76 76 76 76 76 76 76 
76 76 76 76 76 76 98 150 150 150 150 150 150 150 150 49 105 149 150 146 
60 114 116 113 94 137 115 88 97 142 148 119 88 96 139 139 99 106 89 126 
149 150 150 150 150 191 147 76 76 76 76 76 76 76 76 76 24 59 76 74 28 48 
69 39 32 38 69 71 40 32 38 15 76 76 76 76 76 76 76 76 76 76 76 76 76 98 
150 150 150 150 150 150 150 150 24 141 150 134 111 111 138 72 52 117 101 
32 110 64 56 112 28 107 70 48 123 21 104 95 25 145 150 150 150 150 191 
147 76 76 76 76 76 76 76 76 76 24 17 22 20 6 70 33 32 66 32 33 38 30 69 
39 15 76 76 76 76 76 76 76 76 76 76 76 76 76 98 150 150 150 150 150 150 
150 150 27 138 150 112 54 22 106 72 93 150 68 43 70 65 39 70 39 70 68 33 
116 39 149 144 28 143 150 150 150 150 191 147 76 76 76 76 76 76 76 76 76 
24 48 61 59 14 57 20 28 34 32 35 25 58 76 68 15 76 76 76 76 76 76 76 76 
76 76 76 76 76 98 150 150 150 150 150 150 150 150 56 89 149 150 140 27 
106 72 94 150 68 83 140 133 119 75 75 140 134 117 123 39 150 144 28 143 
150 150 150 150 191 147 76 76 76 76 76 76 76 76 76 24 59 76 75 37 46 23 
54 75 62 57 28 50 76 60 15 76 76 76 76 76 76 76 76 76 76 76 76 76 98 150 
150 150 150 150 150 150 150 135 43 51 65 43 27 106 72 94 150 115 35 98 
58 69 122 33 95 64 63 124 39 150 144 28 143 150 150 150 150 191 147 76 
76 76 76 76 76 76 76 76 24 59 76 76 41 36 54 18 35 17 52 57 17 35 21 15 
76 76 76 76 76 76 76 76 76 76 76 76 76 98 150 150 150 150 150 150 150 150 
150 141 114 100 129 120 136 123 131 150 148 123 100 109 144 149 126 100 
107 142 142 114 150 148 109 147 150 150 150 150 191 147 76 76 76 76 76 
76 76 76 76 69 73 76 76 73 69 75 70 66 70 75 75 70 66 71 68 76 76 76 76 
76 76 76 76 76 76 76 76 76 98 150 150 150 150 150 150 150 150 150 150 150 
150 150 150 150 150 150 150 150 150 150 150 150 150 150 150 150 150 150 
150 150 150 150 150 150 150 150 150 191 147 76 76 76 76 76 76 76 76 76 
76 76 76 76 76 76 76 76 76 76 76 76 76 76 76 76 76 76 76 76 76 76 76 76 
76 76 76 76 76 98 150 150 150 150 150 150 150 150 150 150 150 150 150 150 
150 150 150 150 150 150 150 150 150 150 150 150 150 150 150 150 150 150 
150 150 150 150 150 150 191 147 76 76 76 76 76 76 76 76 76 76 76 76 76 
76 76 76 76 76 76 76 76 76 76 76 76 76 76 76 76 76 76 76 76 76 76 76 76 
76 98 150 150 150 150 150 150 150 150 150 150 150 150 150 150 150 150 150 
150 150 150 150 150 150 150 150 150 150 150 150 150 150 150 150 150 150 
150 150 150 191 147 76 76 76 76 76 76 76 76 76 76 76 76 76 76 76 76 76 
76 76 76 76 76 76 76 76 76 76 76 76 76 76 76 76 76 76 76 76 76 98 150 150 
150 150 150 150 150 150 150 150 150 150 150 150 150 150 150 150 150 150 
150 150 150 150 150 150 150 150 150 150 150 150 150 150 150 150 150 150 
191 147 76 76 76 76 76 76 76 76 76 76 76 76 76 76 76 76 76 76 76 76 76 
76 76 76 76 76 76 76 76 76 76 76 76 76 76 76 76 76 98 150 150 150 150 150 
150 150 150 150 150 150 150 150 150 150 150 150 150 150 150 150 150 150 
150 150 150 150 150 150 150 150 150 150 150 150 150 150 150 191 147 76 
76 76 76 76 76 76 76 76 76 76 76 76 76 76 76 76 76 76 76 76 76 76 76 76 
76 76 76 76 76 76 76 76 76 76 76 76 76 98 150 150 150 150 150 150 150 150 
150 150 150 150 150 150 150 150 150 150 150 150 150 150 150 150 150 150 
150 150 150 150 150 150 150 150 150 150 150 150 191 147 76 76 76 76 76 
76 76 76 76 76 76 76 76 76 76 76 76 76 76 76 76 76 76 76 76 76 76 76 76 
76 76 76 76 76 76 76 76 76 98 150 150 150 150 150 150 150 150 150 150 150 
150 150 150 150 150 150 150 150 150 150 150 150 150 150 150 150 150 150 
150 150 150 150 150 150 150 150 150 191 147 76 76 76 76 76 76 76 76 76 
76 76 76 76 76 76 76 76 76 76 76 76 76 76 76 76 76 76 76 76 76 76 76 76 
76 76 76 76 76 98 150 150 150 150 150 150 150 150 150 150 150 150 150 150 
150 150 150 150 150 150 150 150 150 150 150 150 150 150 150 150 150 150 
150 150 150 150 150 150 191 147 76 76 76 76 76 76 76 76 76 76 76 76 76 
76 76 76 76 76 76 76 76 76 76 76 76 76 76 76 76 76 76 76 76 76 76 76 76 
76 98 150 150 150 150 150 150 150 150 150 150 150 150 150 150 150 150 150 
150 150 150 150 150 150 150 150 150 150 150 150 150 150 150 150 150 150 
150 150 150 191 147 76 76 76 76 76 76 76 76 76 76 76 76 76 76 76 76 76 
76 76 76 76 76 76 76 76 76 76 76 76 76 76 76 76 76 76 76 76 76 98 150 150 
150 150 150 150 150 150 150 150 150 150 150 150 150 150 150 150 150 150 
150 150 150 150 150 150 150 150 150 150 150 150 150 150 150 150 150 150 
191 147 76 76 76 76 76 76 76 76 76 76 76 76 76 76 76 76 76 76 76 76 76 
76 76 76 76 76 76 76 76 76 76 76 76 76 76 76 76 76 98 150 150 150 150 150 
150 150 150 150 150 150 150 150 150 150 150 150 150 150 150 150 150 150 
150 150 150 150 150 150 150 150 150 150 150 150 150 150 150 191 147 76 
76 76 76 76 76 76 76 76 76 76 76 76 76 76 76 76 76 76 76 76 76 76 76 76 
76 76 76 76 76 76 76 76 76 76 76 76 76 98 150 150 150 150 150 150 150 150 
150 150 150 150 150 150 150 150 150 150 150 150 150 150 150 150 150 150 
150 150 150 150 150 150 150 150 150 150 150 150 191 147 76 76 76 76 76 
76 76 76 76 76 76 76 76 76 76 76 76 76 76 76 76 76 76 76 76 76 76 76 76 
76 76 76 76 76 76 76 76 76 98 150 150 150 150 150 150 150 150 150 150 150 
150 150 150 150 150 150 150 150 150 150 150 150 150 150 150 150 150 150 
150 150 150 150 150 150 150 150 150 191 147 76 76 76 76 76 76 76 76 76 
76 76 76 76 76 76 76 76 76 76 76 76 76 76 76 76 76 76 76 76 76 76 76 76 
76 76 76 76 76 98 150 150 150 150 150 150 150 150 150 150 150 150 150 150 
150 150 150 150 150 150 150 150 150 150 150 150 150 150 150 150 150 150 
150 150 150 150 150 150 191 147 76 76 76 76 76 76 76 76 76 76 76 76 76 
76 76 76 76 76 76 76 76 76 76 76 76 76 76 76 76 76 76 76 76 76 76 76 76 
76 98 150 150 150 150 150 150 150 150 150 150 150 150 150 150 150 150 150 
150 150 150 150 150 150 150 150 150 150 150 150 150 150 150 150 150 150 
150 150 150 191 147 76 76 76 76 76 76 76 76 76 76 76 76 76 76 76 76 76 
76 76 76 76 76 76 76 76 76 76 76 76 76 76 76 76 76 76 76 76 76 98 150 150 
150 150 150 150 150 150 150 150 150 150 150 150 150 150 150 150 150 150 
150 150 150 150 150 150 150 150 150 150 150 150 150 150 150 150 150 150 
191 138 61 61 61 61 61 61 61 61 61 61 61 61 61 61 61 61 61 61 61 61 61 
61 61 61 61 61 61 61 61 61 61 61 61 61 61 61 61 61 74 104 104 104 104 104 
104 104 104 104 104 104 104 104 104 104 104 104 104 104 104 104 104 104 
104 104 104 104 105 107 108 110 111 113 114 115 117 118 119 174 118 28 
28 28 28 28 28 28 28 28 28 28 28 28 28 28 28 28 28 28 28 28 28 28 28 28 
28 28 28 28 28 28 28 28 28 28 28 28 28 19 0 0 0 0 0 0 0 0 0 0 0 0 0 0 0 
0 0 0 0 0 0 0 0 0 0 0 1 6 11 15 21 25 30 35 39 44 48 53 135 118 28 28 28 
28 28 28 28 28 28 28 28 28 28 28 28 28 28 28 28 28 28 28 28 28 28 28 28 
28 28 28 28 28 28 28 28 28 28 28 19 0 0 0 0 0 0 0 0 0 0 0 0 0 0 0 0 0 0 
0 0 0 0 0 0 0 1 5 10 14 20 24 30 34 39 42 48 53 58 138 118 28 28 28 28 
28 28 28 28 28 28 28 28 28 28 28 28 28 28 28 28 28 28 28 28 28 28 28 28 
28 28 28 28 28 28 28 28 28 28 19 0 0 0 0 0 0 0 0 0 0 0 0 0 0 0 0 0 0 0 
0 0 0 0 0 1 5 9 15 20 25 29 34 39 43 48 53 57 62 141 118 28 28 28 28 28 
28 28 28 28 28 28 28 28 28 28 28 28 28 28 28 28 28 28 28 28 28 28 28 28 
28 28 28 28 28 28 28 28 28 19 0 0 0 0 0 0 0 0 0 0 0 0 0 0 0 0 0 0 0 0 0 
0 0 0 5 10 15 19 25 29 34 39 43 47 52 59 63 66 143 118 28 28 28 28 28 28 
28 28 28 28 28 28 28 28 28 28 28 28 28 28 28 28 28 28 28 28 28 28 28 28 
28 28 28 28 28 28 28 28 19 0 0 0 0 0 0 0 0 0 0 0 0 0 0 0 0 0 0 0 0 0 0 
1 5 10 14 19 26 29 34 39 43 48 52 58 63 68 73 146 118 28 28 28 28 28 28 
28 28 28 28 28 28 28 28 28 28 28 28 28 28 28 28 28 28 28 28 28 28 28 28 
28 28 28 28 28 28 28 28 19 0 0 0 0 0 0 0 0 0 0 0 0 0 0 0 0 0 0 0 0 0 1 
4 10 15 19 25 29 34 40 43 47 52 58 62 67 72 77 149 118 28 28 28 28 28 28 
28 28 28 28 28 28 28 28 28 28 28 28 28 28 28 28 28 28 28 28 28 28 28 28 
28 28 28 28 28 28 28 28 19 0 0 0 0 0 0 0 0 0 0 0 0 0 0 0 0 0 0 0 0 1 5 
10 15 20 25 29 35 39 43 47 52 57 62 66 73 76 81 153 118 28 28 28 28 28 
28 28 28 28 28 28 28 28 28 28 28 28 28 28 28 28 28 28 28 28 28 28 28 28 
28 28 28 28 28 28 28 28 28 19 0 0 0 0 0 0 0 0 0 0 0 0 0 0 0 0 0 0 0 0 5 
10 14 19 24 30 34 39 42 47 53 57 62 67 72 77 81 88 155 118 28 28 28 28 
28 28 28 28 28 28 28 28 28 28 28 28 28 28 28 28 28 28 28 28 28 28 28 28 
28 28 28 28 28 28 28 28 28 28 19 0 0 0 0 0 0 0 0 0 0 0 0 0 0 0 0 0 0 1 
5 11 15 19 24 29 34 39 43 47 54 56 62 66 71 76 82 86 92 158 118 28 28 28 
28 28 28 28 28 28 28 28 28 28 28 28 28 28 28 28 28 28 28 28 28 28 28 28 
28 28 28 28 28 28 28 28 28 28 28 19 0 0 0 0 0 0 0 0 0 0 0 0 0 0 0 0 0 0 
6 9 14 19 24 29 34 38 43 47 53 57 62 66 72 76 81 87 91 96 161 118 28 28 
28 28 28 28 28 28 28 28 28 28 28 28 28 28 28 28 28 28 28 28 28 28 28 28 
28 28 28 28 28 28 28 28 28 28 28 28 19 0 0 0 0 0 0 0 0 0 0 0 0 0 0 0 0 
1 4 10 15 19 24 30 35 38 43 48 53 57 62 68 71 76 82 84 92 96 101 164 118 
28 28 28 28 28 28 28 28 28 28 28 28 28 28 28 28 28 28 28 28 28 28 28 28 
28 28 28 28 28 28 28 28 28 28 28 28 28 28 19 0 0 0 0 0 0 0 0 0 0 0 0 0 
0 0 0 4 9 14 18 25 28 34 39 42 47 52 56 62 68 71 76 82 86 90 96 101 105 
167 118 28 28 28 28 28 28 28 28 28 28 28 28 28 28 28 28 28 28 28 28 28 
28 28 28 28 28 28 28 28 28 28 28 28 28 28 28 28 28 19 0 0 0 0 0 0 0 0 0 
0 0 0 0 0 1 4 9 14 19 23 29 34 39 44 47 51 57 62 67 72 76 81 86 91 95 100 
106 111 170 118 28 28 28 28 28 28 28 28 28 28 28 28 28 28 28 28 28 28 28 
28 28 28 28 28 28 28 28 28 28 28 28 28 28 28 28 28 28 28 19 0 0 0 0 0 0 
0 0 0 0 0 0 0 0 4 9 14 19 24 29 33 37 43 47 52 57 62 66 71 76 81 85 91 
95 99 106 110 115 171 118 28 28 28 28 28 28 28 28 28 28 28 28 28 28 28 
28 28 28 28 28 28 28 28 28 28 28 28 28 28 28 28 28 28 28 28 28 28 28 19 
0 0 0 0 0 0 0 0 0 0 0 0 0 5 9 13 18 25 29 32 38 42 47 51 57 61 66 72 76 
81 85 90 96 100 106 110 114 119 175 118 28 28 28 28 28 28 28 28 28 28 28 
28 28 28 28 28 28 28 28 28 28 28 28 28 28 28 28 28 28 28 28 28 28 28 28 
28 28 28 19 0 0 0 0 0 0 0 0 3 6 6 7 4 9 18 20 24 28 33 37 43 46 52 57 62 
66 72 78 82 85 91 96 100 106 110 114 119 124 177 118 28 28 28 28 28 28 
28 28 28 23 10 10 10 17 27 22 18 28 28 28 28 28 28 28 28 28 28 28 28 28 
28 28 28 28 28 28 28 28 19 0 0 0 0 0 0 0 0 144 224 210 210 137 18 163 81 
28 32 38 42 47 51 57 62 66 72 125 166 86 89 96 101 105 110 114 119 123 
129 181 118 28 28 28 28 28 28 28 28 28 20 8 20 20 10 19 18 12 28 28 28 
28 28 28 28 28 28 28 28 28 28 28 28 28 28 28 28 28 28 19 0 0 0 0 0 0 0 
0 144 90 14 17 183 59 165 83 33 41 49 51 52 56 62 71 75 77 126 169 90 97 
100 105 109 115 119 123 128 132 184 118 28 28 28 28 28 28 28 28 28 20 10 
26 26 13 16 18 12 23 18 28 26 15 27 23 13 13 21 27 28 28 28 28 28 28 28 
28 28 28 19 0 0 0 0 0 0 0 0 144 141 90 92 194 43 166 86 75 171 156 169 
103 61 177 170 177 164 119 171 109 161 109 110 114 119 123 129 133 137 
186 118 28 28 28 28 28 28 28 28 28 20 1 4 4 2 23 18 12 20 10 28 25 5 24 
3 20 20 4 23 28 28 28 28 28 28 28 28 28 28 19 0 0 0 0 0 0 0 0 146 179 146 
149 208 51 168 87 56 67 67 132 174 135 172 76 82 158 125 186 189 99 109 
115 118 123 129 134 137 143 189 118 28 28 28 28 28 28 28 28 28 20 10 28 
28 17 11 18 12 20 10 28 25 5 22 3 12 12 8 21 28 28 28 28 28 28 28 28 28 
28 19 0 0 0 0 0 0 0 4 148 88 19 23 122 127 170 89 114 172 127 136 180 156 
129 80 85 90 130 223 201 124 113 118 124 129 133 137 143 148 191 118 28 
28 28 28 28 28 28 28 28 20 10 28 28 21 7 18 12 20 9 27 25 5 22 5 26 27 
20 25 28 28 28 28 28 28 28 28 28 28 19 0 0 0 0 0 0 3 9 150 101 39 44 182 
113 172 93 184 85 61 118 184 129 184 87 95 159 118 178 136 203 124 124 
127 132 137 143 148 152 194 118 28 28 28 28 28 28 28 28 28 20 3 9 9 4 17 
18 12 25 5 15 13 3 26 9 12 13 7 25 28 28 28 28 28 28 28 28 28 28 19 0 0 
0 0 0 4 8 13 122 202 202 202 150 53 141 79 101 153 139 136 170 74 158 159 
169 144 107 155 113 143 127 124 133 137 142 147 152 158 198 118 28 28 28 
28 28 28 28 28 28 26 21 21 21 23 27 25 24 28 24 21 24 23 27 27 21 21 26 
28 28 28 28 28 28 28 28 28 28 28 19 0 0 0 0 3 8 13 17 25 31 37 41 43 46 
51 55 60 65 71 76 79 82 90 92 96 103 103 111 118 118 118 132 138 143 146 
152 156 161 199 118 28 28 28 28 28 28 28 28 28 28 28 28 28 28 28 28 28 
28 28 28 28 28 28 28 28 28 28 28 28 28 28 28 28 28 28 28 28 28 19 0 0 0 
3 8 13 18 24 27 32 37 43 47 51 56 60 66 70 75 80 85 90 95 100 105 109 113 
119 124 127 133 137 142 147 151 157 161 165 204 118 28 28 28 28 28 28 28 
28 28 28 28 28 28 28 28 28 28 28 28 28 28 28 28 28 28 28 28 28 28 28 28 
28 28 28 28 28 28 28 19 0 0 3 9 14 17 22 27 33 37 41 47 52 57 61 65 70 
75 81 84 89 94 99 104 109 114 118 122 127 133 138 141 147 152 156 160 165 
171 206 118 28 28 28 28 28 28 28 28 28 28 28 28 28 28 28 28 28 28 28 28 
28 28 28 28 28 28 28 28 28 28 28 28 28 28 28 28 28 28 19 0 3 8 13 18 23 
28 33 37 41 46 50 55 60 66 70 75 80 85 89 95 100 105 110 113 118 123 128 
132 138 142 147 152 156 161 165 169 177 209 118 28 28 28 28 28 28 28 28 
28 28 28 28 28 28 28 28 28 28 28 28 28 28 28 28 28 28 28 28 28 28 28 28 
28 28 28 28 28 28 19 3 8 14 17 23 28 32 37 42 46 50 55 61 66 71 75 80 84 
90 95 99 104 109 113 118 122 127 133 137 143 147 152 156 161 164 171 175 
180 212 118 28 28 28 28 28 28 28 28 28 28 28 28 28 28 28 28 28 28 28 28 
28 28 28 28 28 28 28 28 28 28 28 28 28 28 28 28 28 28 21 8 13 18 23 28 
33 37 41 46 51 55 60 65 70 76 80 85 89 95 99 103 109 113 118 123 128 132 
137 143 147 152 157 160 166 169 175 179 185 215 118 28 28 28 28 28 28 28 
28 28 28 28 28 28 28 28 28 28 28 28 28 28 28 28 28 28 28 28 28 28 28 28 
28 28 28 28 28 28 28 22 13 17 22 28 32 37 41 46 51 55 61 65 70 75 80 85 
90 94 99 104 109 113 118 122 128 133 137 142 147 151 156 160 166 171 176 
179 184 189 217 118 28 28 28 28 28 28 28 28 28 28 28 28 28 28 28 28 28 
28 28 28 28 28 28 28 28 28 28 28 28 28 28 28 28 28 28 28 28 28 24 18 23 
28 33 38 41 46 50 55 61 66 70 76 80 84 89 94 98 103 109 112 117 122 127 
132 137 141 147 152 156 161 166 170 176 180 184 189 194 220 118 28 28 28 
28 28 28 28 28 28 28 28 28 28 28 28 28 28 28 28 28 28 28 28 28 28 28 28 
28 28 28 28 28 28 28 28 28 28 28 25 23 28 32 37 42 46 51 55 61 65 71 75 
79 85 89 95 100 104 109 113 116 122 127 132 138 142 147 152 157 161 165 
170 175 181 185 190 194 200 224 118 28 28 28 28 28 28 28 28 28 28 28 28 
28 28 28 28 28 28 28 28 28 28 28 28 28 28 28 28 28 28 28 28 28 28 28 28 
28 28 27 27 32 37 42 46 51 55 60 65 70 74 78 85 89 94 100 104 109 113 117 
122 126 131 137 141 147 151 156 160 165 170 174 180 184 190 195 198 204 
226 118 28 28 28 28 28 28 28 28 28 28 28 28 28 28 28 28 28 28 28 28 28 
28 28 28 28 28 28 28 28 28 28 28 28 28 28 28 28 28 28 32 37 42 46 51 55 
59 64 70 75 80 84 90 94 99 104 108 113 118 122 127 132 137 141 147 151 
157 160 165 171 175 179 184 189 195 199 204 209 229 118 28 28 28 28 28 
28 28 28 28 28 28 28 28 28 28 28 28 28 28 28 28 28 28 28 28 28 28 28 28 
28 28 28 28 28 28 28 28 28 29 37 41 44 50 55 59 65 70 75 79 85 89 94 99 
103 108 113 117 122 127 133 137 141 147 152 155 160 165 170 174 180 185 
189 194 199 203 209 213 232 118 28 28 28 28 28 28 28 28 28 28 28 28 28 
28 28 28 28 28 28 28 28 28 28 28 28 28 28 28 28 28 28 28 28 28 28 28 28 
28 30 41 45 50 54 60 65 70 74 80 84 89 94 99 104 109 113 117 122 128 132 
136 141 147 151 155 160 165 170 175 179 184 188 194 198 203 209 213 218 
235 118 28 28 28 28 28 28 28 28 28 28 28 28 28 28 28 28 28 28 28 28 28 
28 28 28 28 28 28 28 28 28 28 28 28 28 28 28 28 28 32 46 50 54 60 65 69 
74 80 85 89 94 98 104 108 113 116 122 127 130 136 141 147 152 155 160 165 
169 175 179 184 188 194 199 204 209 213 217 223 237 118 28 28 28 28 28 
28 28 28 28 28 28 28 28 28 28 28 28 28 28 28 28 28 28 28 28 28 28 28 28 
28 28 28 28 28 28 28 28 28 33 50 55 60 64 70 74 79 84 89 95 99 103 108 
114 116 122 127 131 136 141 146 150 156 159 165 170 174 179 185 189 193 
198 203 208 214 218 222 226 237 172 118 118 118 118 118 118 118 118 118 
118 118 118 118 118 118 118 118 118 118 118 118 118 118 118 118 118 118 
118 118 118 118 118 118 118 118 118 118 118 122 133 136 139 141 145 149 
150 154 157 159 162 165 168 171 174 177 179 183 185 189 191 194 197 199 
203 206 208 211 215 217 220 223 226 229 231 235 237 237 244 
